<svg width="45" height="45" viewBox="0 0 45 45" fill="none" xmlns="http://www.w3.org/2000/svg">
<g id="System / Camera">
<path id="Vector" d="M27.125 24.375C27.125 26.9293 25.0543 29 22.5 29V31C26.1589 31 29.125 28.0339 29.125 24.375H27.125ZM22.5 29C19.9457 29 17.875 26.9293 17.875 24.375H15.875C15.875 28.0339 18.8411 31 22.5 31V29ZM17.875 24.375C17.875 21.8207 19.9457 19.75 22.5 19.75V17.75C18.8411 17.75 15.875 20.7161 15.875 24.375H17.875ZM22.5 19.75C25.0543 19.75 27.125 21.8207 27.125 24.375H29.125C29.125 20.7161 26.1589 17.75 22.5 17.75V19.75Z" fill="#9DA0A8"/>
<path id="Vector_2" d="M7.5 14.125H37.5V12.125H7.5V14.125ZM38.375 15V33.75H40.375V15H38.375ZM37.5 34.625H7.5V36.625H37.5V34.625ZM6.625 33.75V15H4.625V33.75H6.625ZM7.5 34.625C7.01675 34.625 6.625 34.2332 6.625 33.75H4.625C4.625 35.3378 5.91218 36.625 7.5 36.625V34.625ZM38.375 33.75C38.375 34.2332 37.9832 34.625 37.5 34.625V36.625C39.0878 36.625 40.375 35.3378 40.375 33.75H38.375ZM37.5 14.125C37.9832 14.125 38.375 14.5168 38.375 15H40.375C40.375 13.4122 39.0878 12.125 37.5 12.125V14.125ZM7.5 12.125C5.91218 12.125 4.625 13.4122 4.625 15H6.625C6.625 14.5168 7.01675 14.125 7.5 14.125V12.125Z" fill="#9DA0A8"/>
<path id="Vector_3" d="M28.5525 8.78207L27.6038 9.0983V9.0983L28.5525 8.78207ZM29.1775 10.6571L30.1262 10.3408V10.3408L29.1775 10.6571ZM15.8228 10.6571L14.8741 10.3408L15.8228 10.6571ZM16.4478 8.78207L15.4991 8.46585L15.4991 8.46585L16.4478 8.78207ZM18.2265 8.5H26.7737V6.5H18.2265V8.5ZM27.6038 9.0983L28.2288 10.9733L30.1262 10.3408L29.5012 8.46585L27.6038 9.0983ZM27.3987 12.125H17.6015V14.125H27.3987V12.125ZM16.7714 10.9733L17.3964 9.0983L15.4991 8.46585L14.8741 10.3408L16.7714 10.9733ZM17.6015 12.125C17.0043 12.125 16.5826 11.5399 16.7714 10.9733L14.8741 10.3408C14.2535 12.2025 15.6392 14.125 17.6015 14.125V12.125ZM28.2288 10.9733C28.4177 11.5399 27.9959 12.125 27.3987 12.125V14.125C29.361 14.125 30.7467 12.2025 30.1262 10.3408L28.2288 10.9733ZM26.7737 8.5C27.1503 8.5 27.4847 8.741 27.6038 9.0983L29.5012 8.46585C29.1098 7.29186 28.0112 6.5 26.7737 6.5V8.5ZM18.2265 6.5C16.989 6.5 15.8904 7.29186 15.4991 8.46585L17.3964 9.0983C17.5155 8.741 17.8499 8.5 18.2265 8.5V6.5Z" fill="#9DA0A8"/>
</g>
</svg>
