<svg width="16" height="16" viewBox="0 0 16 16" fill="none" xmlns="http://www.w3.org/2000/svg">
<circle cx="8" cy="8" r="8" fill="#EFF1F4"/>
<g clip-path="url(#clip0_232_3760)">
<path d="M9.96967 11.0303C10.2626 11.3232 10.7374 11.3232 11.0303 11.0303C11.3232 10.7374 11.3232 10.2626 11.0303 9.96967L9.96967 11.0303ZM6.03033 4.96967C5.73744 4.67678 5.26256 4.67678 4.96967 4.96967C4.67678 5.26256 4.67678 5.73744 4.96967 6.03033L6.03033 4.96967ZM11.0303 9.96967L6.03033 4.96967L4.96967 6.03033L9.96967 11.0303L11.0303 9.96967Z" fill="#9DA0A8"/>
<path d="M11.0303 6.03033C11.3232 5.73744 11.3232 5.26256 11.0303 4.96967C10.7374 4.67678 10.2626 4.67678 9.96967 4.96967L11.0303 6.03033ZM4.96967 9.96967C4.67678 10.2626 4.67678 10.7374 4.96967 11.0303C5.26256 11.3232 5.73744 11.3232 6.03033 11.0303L4.96967 9.96967ZM9.96967 4.96967L4.96967 9.96967L6.03033 11.0303L11.0303 6.03033L9.96967 4.96967Z" fill="#9DA0A8"/>
</g>
<defs>
<clipPath id="clip0_232_3760">
<rect width="8" height="8" fill="white" transform="translate(4 4)"/>
</clipPath>
</defs>
</svg>
