<svg width="24" height="24" viewBox="0 0 24 24" fill="none" xmlns="http://www.w3.org/2000/svg">
<g id="Edit /Hide-filled">
<g id="Group 755">
<path id="Vector" d="M9.15162 12.4044C9.39762 13.4474 10.2416 14.3024 11.2716 14.5514C11.8226 14.6844 12.3556 14.6614 12.8366 14.5184L9.17563 10.8574C9.04363 11.3354 9.02362 11.8614 9.15162 12.4044Z" fill="#9DA0A8"/>
<path id="Vector_2" d="M14.8511 10.9267C14.6051 9.8837 13.7611 9.0287 12.7311 8.7797C12.1791 8.6457 11.6451 8.6697 11.1631 8.8147L14.8271 12.4787C14.9601 11.9997 14.9801 11.4717 14.8511 10.9267Z" fill="#9DA0A8"/>
<path id="Vector_3" d="M12.902 16.244C9.659 16.868 6.863 14.037 7.479 10.751C7.557 10.335 7.7 9.94005 7.886 9.56805L5.316 6.99805C3.971 8.06305 2.875 9.43705 2.141 11.02C1.953 11.424 1.953 11.908 2.141 12.312C3.882 16.065 7.64 18.666 12 18.666C13.47 18.666 14.868 18.365 16.147 17.829L14.125 15.807C13.743 16.01 13.333 16.162 12.903 16.245L12.902 16.244Z" fill="#9DA0A8"/>
<path id="Vector_4" d="M21.8585 12.314C22.0465 11.91 22.0465 11.426 21.8585 11.022C20.1185 7.26897 16.3615 4.66797 11.9995 4.66797C10.5295 4.66797 9.13154 4.96997 7.85254 5.50497L9.87254 7.52497C10.2555 7.32197 10.6655 7.16897 11.0975 7.08597C14.3415 6.46197 17.1365 9.29397 16.5205 12.579C16.4425 12.996 16.2985 13.391 16.1125 13.764L18.6835 16.335C20.0295 15.271 21.1255 13.896 21.8595 12.313L21.8585 12.314Z" fill="#9DA0A8"/>
<path id="Vector_5" d="M3.67871 4L19.6787 20" stroke="#9DA0A8" stroke-width="2" stroke-linecap="round" stroke-linejoin="round"/>
</g>
</g>
</svg>
