<svg width="24" height="24" viewBox="0 0 24 24" fill="none" xmlns="http://www.w3.org/2000/svg">
<g id="Edit / Show-filled">
<g id="Group 606">
<path id="Vector" d="M12 5C7.63986 5 3.88226 7.60094 2.14096 11.354C1.95301 11.7585 1.95301 12.2415 2.14096 12.646C3.88226 16.3991 7.63986 19 12 19C16.3601 19 20.1191 16.3991 21.859 12.646C22.047 12.2415 22.047 11.7585 21.859 11.354C20.1191 7.60094 16.3615 5 12 5ZM12.9024 16.5782C9.65893 17.2026 6.86318 14.3707 7.47955 11.0852C7.82228 9.25977 9.29547 7.76612 11.0976 7.41896C14.3411 6.79462 17.1368 9.62654 16.5205 12.912C16.1777 14.7374 14.7045 16.2311 12.9024 16.5782ZM12.7311 9.11279C10.5392 8.58224 8.62797 10.5196 9.15174 12.7384C9.39773 13.7813 10.2421 14.6366 11.2717 14.8858C13.4635 15.4164 15.3748 13.479 14.851 11.2602C14.605 10.2173 13.7606 9.36196 12.7311 9.11279Z" fill="#9DA0A8"/>
</g>
</g>
</svg>
