<svg width="24" height="24" viewBox="0 0 24 24" fill="none" xmlns="http://www.w3.org/2000/svg">
<g id="Group 421">
<g id="logo_googleg_48dp">
<path id="Shape" fill-rule="evenodd" clip-rule="evenodd" d="M20.661 11.6932C20.661 11.0905 20.6069 10.511 20.5064 9.95459H12.501V13.2425H17.0755C16.8785 14.305 16.2796 15.2053 15.3794 15.808V17.9407H18.1264C19.7337 16.4609 20.661 14.2819 20.661 11.6932Z" fill="#4285F4"/>
<path id="Shape_2" fill-rule="evenodd" clip-rule="evenodd" d="M12.5007 19.9997C14.7957 19.9997 16.7198 19.2386 18.1261 17.9404L15.3791 15.8077C14.618 16.3177 13.6443 16.6191 12.5007 16.6191C10.2868 16.6191 8.41296 15.1238 7.74455 13.1147H4.90479V15.317C6.30342 18.095 9.17796 19.9997 12.5007 19.9997Z" fill="#34A853"/>
<path id="Shape_3" fill-rule="evenodd" clip-rule="evenodd" d="M7.74386 13.1149C7.57386 12.6049 7.47727 12.0601 7.47727 11.4999C7.47727 10.9397 7.57386 10.3949 7.74386 9.88489V7.68262H4.90409C4.32841 8.83012 4 10.1283 4 11.4999C4 12.8715 4.32841 14.1697 4.90409 15.3172L7.74386 13.1149Z" fill="#FBBC05"/>
<path id="Shape_4" fill-rule="evenodd" clip-rule="evenodd" d="M12.5007 6.38068C13.7486 6.38068 14.8691 6.80954 15.75 7.65181L18.188 5.21386C16.7159 3.84227 14.7918 3 12.5007 3C9.17796 3 6.30342 4.90477 4.90479 7.68272L7.74455 9.88499C8.41296 7.8759 10.2868 6.38068 12.5007 6.38068Z" fill="#EA4335"/>
</g>
</g>
</svg>
