<svg width="24" height="24" viewBox="0 0 24 24" fill="none" xmlns="http://www.w3.org/2000/svg">
<g id="location">
<path id="coolicon" d="M12 21.0037C10.7369 19.9263 9.56619 18.7452 8.5 17.4727C6.9 15.5617 5 12.7157 5 10.0037C4.99858 7.17126 6.70425 4.6171 9.32107 3.53311C11.9379 2.44912 14.9501 3.04895 16.952 5.05271C18.2685 6.36332 19.0059 8.1461 19 10.0037C19 12.7157 17.1 15.5617 15.5 17.4727C14.4338 18.7452 13.2631 19.9263 12 21.0037ZM12 7.00371C10.9282 7.00371 9.93782 7.57551 9.40193 8.50371C8.86603 9.43192 8.86603 10.5755 9.40193 11.5037C9.93782 12.4319 10.9282 13.0037 12 13.0037C13.6569 13.0037 15 11.6606 15 10.0037C15 8.34686 13.6569 7.00371 12 7.00371Z" fill="#FF823C"/>
</g>
</svg>
