<svg width="17" height="17" viewBox="0 0 17 17" fill="none" xmlns="http://www.w3.org/2000/svg">
<g id="mark" clip-path="url(#clip0_539_3618)">
<path id="Vector" d="M11.047 1.84962C13.4828 0.616568 16.1106 3.10289 15.0089 5.59933C17.5963 6.43821 17.6974 10.0666 15.1504 11.047C16.3835 13.4828 13.8972 16.1106 11.4007 15.009C10.5619 17.5964 6.93344 17.6974 5.95306 15.1505C3.51727 16.3835 0.889441 13.8972 1.99111 11.4008C-0.59629 10.5619 -0.69736 6.93345 1.84961 5.95307C0.606445 3.52739 3.10288 0.899564 5.59931 2.00123C6.43819 -0.586167 10.0666 -0.697344 11.047 1.84962Z" fill="#FF823C"/>
<path id="Vector_2" d="M5.4679 8.09564L7.74197 10.5213L11.5321 6.47852" stroke="white" stroke-linecap="round" stroke-linejoin="round"/>
</g>
<defs>
<clipPath id="clip0_539_3618">
<rect width="17" height="17" fill="white"/>
</clipPath>
</defs>
</svg>
