<svg width="22" height="30" viewBox="0 0 22 30" fill="none" xmlns="http://www.w3.org/2000/svg">
<path fill-rule="evenodd" clip-rule="evenodd" d="M5.49999 24.1161C7.17577 26.2353 9.0155 28.2031 11 30C12.9844 28.2031 14.8242 26.2353 16.5 24.1161C18.0468 22.1581 19.7724 19.6092 20.8715 16.8846C21.5578 15.1804 21.9999 13.4079 21.9999 11.6696C22.009 8.57387 20.85 5.60507 18.7818 3.42241C15.6361 0.0825145 10.9027 -0.918478 6.79018 0.888192C2.67763 2.69486 -0.00226008 6.94786 1.43022e-06 11.6696C1.43022e-06 16.1912 2.98519 20.9325 5.49999 24.1161Z" fill="#FF823C"/>
<g clip-path="url(#clip0_39_846)">
<path fill-rule="evenodd" clip-rule="evenodd" d="M6.84542 6.78114C7.38279 6.27856 8.10681 6 8.85714 6H13.1429C13.8932 6 14.6172 6.27856 15.1546 6.78114C15.6928 7.28449 16 7.97248 16 8.69533C16 8.97524 15.8809 9.23842 15.6776 9.42856C15.4751 9.61794 15.2053 9.72053 14.9286 9.72053H7.07143C6.79469 9.72053 6.52488 9.61794 6.3224 9.42856C6.11911 9.23842 6 8.97524 6 8.69533C6 7.97248 6.30724 7.28449 6.84542 6.78114ZM6.54971 10.8214C6.25384 10.8214 6.01399 11.0613 6.01399 11.3571C6.01399 11.653 6.25384 11.8929 6.54971 11.8929H15.4503C15.7461 11.8929 15.986 11.653 15.986 11.3571C15.986 11.0613 15.7461 10.8214 15.4503 10.8214H6.54971ZM6.21863 13.1553C6.35426 13.0292 6.53296 12.9626 6.71429 12.9626H7.78571C7.8377 12.9626 7.88906 12.9739 7.93621 12.9958L9.86133 13.8903L10.7569 13.0581C10.823 12.9967 10.9098 12.9626 11 12.9626H15.2857C15.4671 12.9626 15.6457 13.0292 15.7814 13.1553C15.9179 13.2821 16 13.46 16 13.6516C16 14.2832 15.7297 14.8832 15.2584 15.3212C14.7879 15.7585 14.1549 16 13.5 16H8.5C7.84507 16 7.21216 15.7585 6.74166 15.3212C6.27026 14.8832 6 14.2832 6 13.6516C6 13.46 6.08212 13.2821 6.21863 13.1553Z" fill="white"/>
</g>
<defs>
<clipPath id="clip0_39_846">
<rect width="10" height="10" fill="white" transform="translate(6 6)"/>
</clipPath>
</defs>
</svg>
