<svg width="20" height="20" viewBox="0 0 20 20" fill="none" xmlns="http://www.w3.org/2000/svg">
<g id="state=on">
<path id="Vector" d="M2.13118 8.11716C1.87616 7.88531 2.01469 7.46616 2.35962 7.42595L7.24721 6.85602C7.38779 6.83963 7.5099 6.75284 7.5692 6.62646L9.63071 2.2326C9.7762 1.92251 10.2246 1.92245 10.3701 2.23254L12.4316 6.62636C12.4909 6.75275 12.6122 6.83977 12.7528 6.85616L17.6407 7.42595C17.9856 7.46616 18.1237 7.88543 17.8687 8.11729L14.2556 11.4028C14.1517 11.4973 14.1054 11.6379 14.133 11.7744L15.0919 16.5204C15.1596 16.8553 14.797 17.1148 14.4939 16.948L10.1992 14.584C10.0757 14.516 9.92558 14.5164 9.80204 14.5843L5.50688 16.9474C5.20378 17.1142 4.84053 16.8553 4.90823 16.5204L5.86729 11.7747C5.89488 11.6382 5.84872 11.4973 5.74479 11.4028L2.13118 8.11716Z" fill="#FF823C" stroke="#FF823C" stroke-width="1.5" stroke-linecap="round" stroke-linejoin="round"/>
</g>
</svg>
