<svg width="12" height="11" viewBox="0 0 12 11" fill="none" xmlns="http://www.w3.org/2000/svg">
<path id="Vector" d="M0.0983851 4.48592C-0.0928804 4.31589 0.0110154 4.00852 0.269718 3.97903L3.93541 3.56108C4.04084 3.54906 4.13243 3.48541 4.1769 3.39274L5.72303 0.170572C5.83215 -0.0568283 6.16845 -0.056872 6.27757 0.170529L7.82371 3.39267C7.86818 3.48535 7.95916 3.54917 8.0646 3.56118L11.7305 3.97903C11.9892 4.00852 12.0928 4.31598 11.9015 4.48601L9.1917 6.89538C9.11374 6.96467 9.07904 7.06782 9.09973 7.16793L9.81891 10.6483C9.86969 10.8939 9.59775 11.0842 9.37042 10.9619L6.14939 9.22828C6.05674 9.17843 5.94418 9.17866 5.85153 9.22851L2.63016 10.9615C2.40283 11.0838 2.1304 10.8939 2.18117 10.6483L2.90047 7.16814C2.92116 7.06804 2.88654 6.96465 2.80859 6.89536L0.0983851 4.48592Z" fill="#FF823C"/>
</svg>
