<svg width="70" height="70" viewBox="0 0 70 70" fill="none" xmlns="http://www.w3.org/2000/svg">
<g id="symbol">
<rect id="Rectangle 41909" width="70" height="70" rx="10" fill="white"/>
<ellipse id="Ellipse 7162" cx="35" cy="44.1875" rx="25.375" ry="10.9375" fill="#E4E6EA"/>
<ellipse id="Ellipse 7163" cx="35" cy="44.625" rx="18.375" ry="6.125" fill="#EFF1F4"/>
<path id="coolicon" d="M34.9999 44.625C32.9475 42.8447 31.045 40.893 29.3125 38.7902C26.7125 35.6324 23.625 30.9296 23.625 26.4482C23.6227 21.7677 26.3944 17.5472 30.6467 15.7559C34.899 13.9647 39.7938 14.9559 43.0469 18.267C45.1861 20.4327 46.3845 23.3786 46.3749 26.4482C46.3749 30.9296 43.2874 35.6324 40.6874 38.7902C38.9549 40.893 37.0524 42.8447 34.9999 44.625ZM34.9999 21.4909C33.2583 21.4909 31.6489 22.4357 30.7781 23.9695C29.9073 25.5033 29.9073 27.3931 30.7781 28.9269C31.6489 30.4606 33.2583 31.4055 34.9999 31.4055C37.6923 31.4055 39.8749 29.186 39.8749 26.4482C39.8749 23.7103 37.6923 21.4909 34.9999 21.4909Z" fill="#FF823C"/>
</g>
</svg>
