<svg width="28" height="20" viewBox="0 0 28 20" fill="none" xmlns="http://www.w3.org/2000/svg">
<g id="Group 1171275025">
<g id="Group">
<path id="Vector" d="M8.54873 13.2113C10.9118 13.2113 12.8275 11.2956 12.8275 8.93252C12.8275 6.56943 10.9118 4.65381 8.54873 4.65381C6.18564 4.65381 4.27002 6.56943 4.27002 8.93252C4.27002 11.2956 6.18564 13.2113 8.54873 13.2113Z" fill="#F9C900"/>
<path id="Vector_2" d="M8.88123 0.375H8.22498V3.66501H8.88123V0.375Z" fill="#F9C900"/>
<path id="Vector_3" d="M3.29001 8.59985H0V9.2561H3.29001V8.59985Z" fill="#F9C900"/>
<path id="Vector_4" d="M14.3566 2.6511L11.9374 5.07031L12.4014 5.53435L14.8206 3.11514L14.3566 2.6511Z" fill="#F9C900"/>
<path id="Vector_5" d="M2.72966 2.65413L2.26562 3.11816L4.68484 5.53737L5.14887 5.07334L2.72966 2.65413Z" fill="#F9C900"/>
<path id="Vector_6" d="M12.4019 12.3729L11.9379 12.8369L14.3571 15.2561L14.8211 14.7921L12.4019 12.3729Z" fill="#F9C900"/>
</g>
<g id="Group_2">
<path id="Vector_7" fill-rule="evenodd" clip-rule="evenodd" d="M7.69118 12.1963C5.70493 12.1963 4.08618 13.815 4.08618 15.81C4.08618 17.805 5.70493 19.4237 7.69118 19.4237H23.3625C25.8562 19.4237 27.8862 17.385 27.8862 14.8825C27.8862 12.38 25.8562 10.3413 23.3625 10.3413C22.8987 10.3413 22.435 10.4113 21.9887 10.5513L21.6999 10.6475L21.5949 10.3587C20.6412 7.65498 18.0774 5.84375 15.2249 5.84375C11.7424 5.84375 8.84616 8.46872 8.49616 11.9425L8.46118 12.2662L8.13744 12.2225C7.96244 12.1962 7.81367 12.1875 7.68242 12.1875" fill="#D6E3F2"/>
</g>
</g>
</svg>
