<svg width="28" height="28" viewBox="0 0 28 28" fill="none" xmlns="http://www.w3.org/2000/svg">
<g id="Group">
<path id="Vector" d="M20.9912 14C20.9912 17.8675 17.8587 21 13.9912 21C10.1237 21 6.99121 17.8675 6.99121 14C6.99121 10.1325 10.1325 7 13.9912 7C17.85 7 20.9912 10.1325 20.9912 14Z" fill="#F9C900"/>
<path id="Vector_2" d="M14.5338 0H13.4575V5.38127H14.5338V0Z" fill="#F9C900"/>
<path id="Vector_3" d="M14.5338 22.6189H13.4575V28.0001H14.5338V22.6189Z" fill="#F9C900"/>
<path id="Vector_4" d="M5.38124 13.4663H0V14.5426H5.38124V13.4663Z" fill="#F9C900"/>
<path id="Vector_5" d="M28 13.4663H22.61V14.5426H28V13.4663Z" fill="#F9C900"/>
<path id="Vector_6" d="M23.5162 3.71443L19.5502 7.68042L20.3112 8.44143L24.2772 4.47544L23.5162 3.71443Z" fill="#F9C900"/>
<path id="Vector_7" d="M7.68132 19.526L3.71533 23.4919L4.47634 24.253L8.44233 20.287L7.68132 19.526Z" fill="#F9C900"/>
<path id="Vector_8" d="M4.47494 3.72214L3.71393 4.48315L7.67993 8.44916L8.44095 7.68815L4.47494 3.72214Z" fill="#F9C900"/>
<path id="Vector_9" d="M20.3013 19.6032L19.5403 20.3643L23.5063 24.3302L24.2673 23.5692L20.3013 19.6032Z" fill="#F9C900"/>
</g>
</svg>
