<svg width="28" height="28" viewBox="0 0 28 28" fill="none" xmlns="http://www.w3.org/2000/svg">
<g id="Frame 1000003581">
<path id="Vector" fill-rule="evenodd" clip-rule="evenodd" d="M4.42926 22H21.8341C25.0599 22 27.1969 19.5221 26.9856 16.4108C26.9044 15.1678 26.3031 13.9407 25.3199 13.1332C23.9142 11.9853 21.7935 11.7399 20.1521 12.5394C19.9815 11.7161 19.4533 10.869 18.9739 10.1803C17.8851 8.62066 16.26 7.52023 14.3505 7.16398C12.4247 6.80772 10.1415 7.02148 8.38637 7.90816C5.99747 9.11942 4.81928 11.7478 5.31493 14.2891C5.33931 14.3999 5.46931 15.2391 5.56682 15.2549C4.67302 15.0886 3.64107 15.1757 2.81226 15.5241C1.16279 16.2287 0.699651 18.1683 1.17906 19.7279C1.62596 21.1925 2.88539 22 4.43736 22H4.42926Z" fill="#D6E3F2"/>
</g>
</svg>
