<svg width="25" height="24" viewBox="0 0 25 24" fill="none" xmlns="http://www.w3.org/2000/svg">
<g id="list_off_fill">
<path id="coolicon" d="M20.625 18.8571C20.625 19.4883 20.1133 20 19.4821 20H14.9107C14.2795 20 13.7679 19.4883 13.7679 18.8571V14.2857C13.7679 13.6545 14.2795 13.1429 14.9107 13.1429H19.4821C20.1133 13.1429 20.625 13.6545 20.625 14.2857V18.8571ZM11.4821 18.8571C11.4821 19.4883 10.9705 20 10.3393 20H5.76786C5.13667 20 4.625 19.4883 4.625 18.8571V14.2857C4.625 13.6545 5.13667 13.1429 5.76786 13.1429H10.3393C10.9705 13.1429 11.4821 13.6545 11.4821 14.2857V18.8571ZM20.625 9.71429C20.625 10.3455 20.1133 10.8571 19.4821 10.8571H14.9107C14.2795 10.8571 13.7679 10.3455 13.7679 9.71429V5.14286C13.7679 4.51167 14.2795 4 14.9107 4H19.4821C20.1133 4 20.625 4.51167 20.625 5.14286V9.71429ZM11.4821 9.71429C11.4821 10.3455 10.9705 10.8571 10.3393 10.8571H5.76786C5.13667 10.8571 4.625 10.3455 4.625 9.71429V5.14286C4.625 4.51167 5.13667 4 5.76786 4H10.3393C10.9705 4 11.4821 4.51167 11.4821 5.14286V9.71429Z" fill="#9DA0A8"/>
</g>
</svg>
