<svg width="25" height="24" viewBox="0 0 25 24" fill="none" xmlns="http://www.w3.org/2000/svg">
<g id="recommendation_off_fill">
<path id="Union" fill-rule="evenodd" clip-rule="evenodd" d="M5.24828 4C5.73057 4 6.12156 4.38441 6.12156 4.85861V7.72065C6.12156 8.252 6.33623 8.76158 6.71837 9.13728C6.88485 9.30098 7.07718 9.43341 7.28593 9.53077V4.85861C7.28593 4.38441 7.6769 4 8.15921 4C8.6415 4 9.03248 4.38441 9.03248 4.85861V9.53077C9.24294 9.43261 9.43497 9.29958 9.60003 9.13728C9.78925 8.95125 9.93934 8.73039 10.0417 8.48732C10.1441 8.24426 10.1969 7.98374 10.1969 7.72065V4.85861C10.1969 4.38441 10.5878 4 11.0701 4C11.5524 4 11.9434 4.38441 11.9434 4.85861V7.72065C11.9434 8.20925 11.8455 8.69307 11.6554 9.14448C11.4652 9.59589 11.1864 10.006 10.835 10.3515C10.4836 10.697 10.0665 10.9711 9.60736 11.1581C9.51423 11.196 9.41974 11.2302 9.32415 11.2606V18.8552C9.32415 19.4874 8.80284 20 8.15978 20C7.51671 20 6.99541 19.4874 6.99541 18.8552V11.261C6.43047 11.0814 5.911 10.772 5.48337 10.3515C4.77369 9.65379 4.375 8.70743 4.375 7.72065V4.85861C4.375 4.38441 4.76598 4 5.24828 4ZM16.9505 4C14.8874 4 13.526 5.97692 13.526 7.9941C13.526 9.60172 14.3907 11.1837 15.7861 11.7599V18.8552C15.7861 19.4875 16.3074 20 16.9505 20C17.5936 20 18.1148 19.4875 18.1148 18.8552V11.7599C19.5103 11.1838 20.375 9.60174 20.375 7.9941C20.375 5.97692 19.0136 4 16.9505 4Z" fill="#9DA0A8"/>
</g>
</svg>
